HIERARCHY
ROOT mixamorig:Hips
{
	OFFSET -0.000008 104.274872 1.554316
	CHANNELS 6 Xposition Yposition Zposition Xrotation Yrotation Zrotation
	JOINT mixamorig:Spine
	{
		OFFSET -0.000005 10.181595 0.131519
		CHANNELS 6 Xposition Yposition Zposition Xrotation Yrotation Zrotation
		JOINT mixamorig:Spine1
		{
			OFFSET -0.000000 9.893959 -1.470707
			CHANNELS 6 Xposition Yposition Zposition Xrotation Yrotation Zrotation
			JOINT mixamorig:Spine2
			{
				OFFSET -0.000000 9.220757 -1.370641
				CHANNELS 6 Xposition Yposition Zposition Xrotation Yrotation Zrotation
				JOINT mixamorig:Neck
				{
					OFFSET 0.000001 16.740417 -2.049036
					CHANNELS 6 Xposition Yposition Zposition Xrotation Yrotation Zrotation
					JOINT mixamorig:Head
					{
						OFFSET 0.000000 9.617874 1.685006
						CHANNELS 6 Xposition Yposition Zposition Xrotation Yrotation Zrotation
						JOINT mixamorig:HeadTop_End
						{
							OFFSET 0.000002 22.037354 7.501101
							CHANNELS 6 Xposition Yposition Zposition Xrotation Yrotation Zrotation
							End Site
							{
								OFFSET 0.000168 2310.654297 -282.823242
							}
						}
					}
				}
				JOINT mixamorig:RightShoulder
				{
					OFFSET -4.569970 11.014908 -2.160885
					CHANNELS 6 Xposition Yposition Zposition Xrotation Yrotation Zrotation
					JOINT mixamorig:RightArm
					{
						OFFSET -10.592851 -0.524811 -2.232101
						CHANNELS 6 Xposition Yposition Zposition Xrotation Yrotation Zrotation
						JOINT mixamorig:RightForeArm
						{
							OFFSET -27.841511 0.000031 -0.000004
							CHANNELS 6 Xposition Yposition Zposition Xrotation Yrotation Zrotation
							JOINT mixamorig:RightHand
							{
								OFFSET -28.328831 -0.000015 0.000015
								CHANNELS 6 Xposition Yposition Zposition Xrotation Yrotation Zrotation
								JOINT mixamorig:RightHandThumb1
								{
									OFFSET -2.464806 -1.573990 2.681852
									CHANNELS 6 Xposition Yposition Zposition Xrotation Yrotation Zrotation
									JOINT mixamorig:RightHandThumb2
									{
										OFFSET -3.215179 -1.872803 1.924282
										CHANNELS 6 Xposition Yposition Zposition Xrotation Yrotation Zrotation
										JOINT mixamorig:RightHandThumb3
										{
											OFFSET -2.654831 -1.527969 1.512609
											CHANNELS 6 Xposition Yposition Zposition Xrotation Yrotation Zrotation
											JOINT mixamorig:RightHandThumb4
											{
												OFFSET -2.018814 -1.152008 1.108052
												CHANNELS 6 Xposition Yposition Zposition Xrotation Yrotation Zrotation
												End Site
												{
													OFFSET -188.809540 -114.533607 132.431396
												}
											}
										}
									}
								}
								JOINT mixamorig:RightHandIndex1
								{
									OFFSET -9.108284 -0.517868 2.259835
									CHANNELS 6 Xposition Yposition Zposition Xrotation Yrotation Zrotation
									JOINT mixamorig:RightHandIndex2
									{
										OFFSET -3.699989 0.000000 0.001215
										CHANNELS 6 Xposition Yposition Zposition Xrotation Yrotation Zrotation
										JOINT mixamorig:RightHandIndex3
										{
											OFFSET -2.850006 0.000031 -0.000522
											CHANNELS 6 Xposition Yposition Zposition Xrotation Yrotation Zrotation
											JOINT mixamorig:RightHandIndex4
											{
												OFFSET -2.772186 -0.000015 -0.000020
												CHANNELS 6 Xposition Yposition Zposition Xrotation Yrotation Zrotation
												End Site
												{
													OFFSET -277.218445 0.000000 -0.050231
												}
											}
										}
									}
								}
								JOINT mixamorig:RightHandMiddle1
								{
									OFFSET -9.532516 -0.000031 -0.000023
									CHANNELS 6 Xposition Yposition Zposition Xrotation Yrotation Zrotation
									JOINT mixamorig:RightHandMiddle2
									{
										OFFSET -3.700005 -0.000015 0.003713
										CHANNELS 6 Xposition Yposition Zposition Xrotation Yrotation Zrotation
										JOINT mixamorig:RightHandMiddle3
										{
											OFFSET -2.949974 0.000015 -0.002054
											CHANNELS 6 Xposition Yposition Zposition Xrotation Yrotation Zrotation
											JOINT mixamorig:RightHandMiddle4
											{
												OFFSET -2.946640 0.000000 -0.000156
												CHANNELS 6 Xposition Yposition Zposition Xrotation Yrotation Zrotation
												End Site
												{
													OFFSET -294.664337 0.000000 -0.113670
												}
											}
										}
									}
								}
								JOINT mixamorig:RightHandRing1
								{
									OFFSET -9.103600 -0.043076 -1.865134
									CHANNELS 6 Xposition Yposition Zposition Xrotation Yrotation Zrotation
									JOINT mixamorig:RightHandRing2
									{
										OFFSET -3.379288 0.000000 -0.001055
										CHANNELS 6 Xposition Yposition Zposition Xrotation Yrotation Zrotation
										JOINT mixamorig:RightHandRing3
										{
											OFFSET -2.889687 -0.000015 0.000379
											CHANNELS 6 Xposition Yposition Zposition Xrotation Yrotation Zrotation
											JOINT mixamorig:RightHandRing4
											{
												OFFSET -2.638809 -0.000015 0.000941
												CHANNELS 6 Xposition Yposition Zposition Xrotation Yrotation Zrotation
												End Site
												{
													OFFSET -263.880371 0.000000 0.516020
												}
											}
										}
									}
								}
								JOINT mixamorig:RightHandPinky1
								{
									OFFSET -8.076683 -0.486710 -3.806280
									CHANNELS 6 Xposition Yposition Zposition Xrotation Yrotation Zrotation
									JOINT mixamorig:RightHandPinky2
									{
										OFFSET -3.600014 -0.000015 -0.003747
										CHANNELS 6 Xposition Yposition Zposition Xrotation Yrotation Zrotation
										JOINT mixamorig:RightHandPinky3
										{
											OFFSET -2.099983 0.000000 -0.005739
											CHANNELS 6 Xposition Yposition Zposition Xrotation Yrotation Zrotation
											JOINT mixamorig:RightHandPinky4
											{
												OFFSET -2.115768 -0.000031 -0.003680
												CHANNELS 6 Xposition Yposition Zposition Xrotation Yrotation Zrotation
												End Site
												{
													OFFSET -211.577087 0.000000 -0.350686
												}
											}
										}
									}
								}
							}
						}
					}
				}
				JOINT mixamorig:LeftShoulder
				{
					OFFSET 4.570447 11.014725 -2.160855
					CHANNELS 6 Xposition Yposition Zposition Xrotation Yrotation Zrotation
					JOINT mixamorig:LeftArm
					{
						OFFSET 10.592371 -0.524597 -2.232119
						CHANNELS 6 Xposition Yposition Zposition Xrotation Yrotation Zrotation
						JOINT mixamorig:LeftForeArm
						{
							OFFSET 27.841532 -0.000031 0.000026
							CHANNELS 6 Xposition Yposition Zposition Xrotation Yrotation Zrotation
							JOINT mixamorig:LeftHand
							{
								OFFSET 28.328846 -0.000061 0.000022
								CHANNELS 6 Xposition Yposition Zposition Xrotation Yrotation Zrotation
								JOINT mixamorig:LeftHandThumb1
								{
									OFFSET 2.466141 -1.576172 2.681732
									CHANNELS 6 Xposition Yposition Zposition Xrotation Yrotation Zrotation
									JOINT mixamorig:LeftHandThumb2
									{
										OFFSET 3.217812 -1.872070 1.916482
										CHANNELS 6 Xposition Yposition Zposition Xrotation Yrotation Zrotation
										JOINT mixamorig:LeftHandThumb3
										{
											OFFSET 2.656029 -1.528778 1.514513
											CHANNELS 6 Xposition Yposition Zposition Xrotation Yrotation Zrotation
											JOINT mixamorig:LeftHandThumb4
											{
												OFFSET 2.020889 -1.154053 1.115139
												CHANNELS 6 Xposition Yposition Zposition Xrotation Yrotation Zrotation
												End Site
												{
													OFFSET 190.885437 -115.081749 130.048782
												}
											}
										}
									}
								}
								JOINT mixamorig:LeftHandIndex1
								{
									OFFSET 9.109314 -0.518021 2.259871
									CHANNELS 6 Xposition Yposition Zposition Xrotation Yrotation Zrotation
									JOINT mixamorig:LeftHandIndex2
									{
										OFFSET 3.699989 0.000000 -0.000322
										CHANNELS 6 Xposition Yposition Zposition Xrotation Yrotation Zrotation
										JOINT mixamorig:LeftHandIndex3
										{
											OFFSET 2.850006 0.000000 0.000352
											CHANNELS 6 Xposition Yposition Zposition Xrotation Yrotation Zrotation
											JOINT mixamorig:LeftHandIndex4
											{
												OFFSET 2.774864 -0.000031 -0.000027
												CHANNELS 6 Xposition Yposition Zposition Xrotation Yrotation Zrotation
												End Site
												{
													OFFSET 277.486267 0.000000 -0.009857
												}
											}
										}
									}
								}
								JOINT mixamorig:LeftHandMiddle1
								{
									OFFSET 9.533394 0.000061 0.000044
									CHANNELS 6 Xposition Yposition Zposition Xrotation Yrotation Zrotation
									JOINT mixamorig:LeftHandMiddle2
									{
										OFFSET 3.699989 -0.000015 -0.000231
										CHANNELS 6 Xposition Yposition Zposition Xrotation Yrotation Zrotation
										JOINT mixamorig:LeftHandMiddle3
										{
											OFFSET 2.949997 -0.000015 -0.000059
											CHANNELS 6 Xposition Yposition Zposition Xrotation Yrotation Zrotation
											JOINT mixamorig:LeftHandMiddle4
											{
												OFFSET 2.952896 0.000031 0.000063
												CHANNELS 6 Xposition Yposition Zposition Xrotation Yrotation Zrotation
												End Site
												{
													OFFSET 295.289337 0.000000 0.022810
												}
											}
										}
									}
								}
								JOINT mixamorig:LeftHandRing1
								{
									OFFSET 9.104523 -0.042999 -1.865074
									CHANNELS 6 Xposition Yposition Zposition Xrotation Yrotation Zrotation
									JOINT mixamorig:LeftHandRing2
									{
										OFFSET 3.150009 -0.000031 0.000043
										CHANNELS 6 Xposition Yposition Zposition Xrotation Yrotation Zrotation
										JOINT mixamorig:LeftHandRing3
										{
											OFFSET 2.949982 -0.000015 0.000040
											CHANNELS 6 Xposition Yposition Zposition Xrotation Yrotation Zrotation
											JOINT mixamorig:LeftHandRing4
											{
												OFFSET 2.644348 0.000000 0.000057
												CHANNELS 6 Xposition Yposition Zposition Xrotation Yrotation Zrotation
												End Site
												{
													OFFSET 264.434631 0.000000 0.012105
												}
											}
										}
									}
								}
								JOINT mixamorig:LeftHandPinky1
								{
									OFFSET 8.077789 -0.486847 -3.806259
									CHANNELS 6 Xposition Yposition Zposition Xrotation Yrotation Zrotation
									JOINT mixamorig:LeftHandPinky2
									{
										OFFSET 3.599953 0.000031 0.014727
										CHANNELS 6 Xposition Yposition Zposition Xrotation Yrotation Zrotation
										JOINT mixamorig:LeftHandPinky3
										{
											OFFSET 2.100021 0.000015 0.007705
											CHANNELS 6 Xposition Yposition Zposition Xrotation Yrotation Zrotation
											JOINT mixamorig:LeftHandPinky4
											{
												OFFSET 2.125504 0.000031 0.007517
												CHANNELS 6 Xposition Yposition Zposition Xrotation Yrotation Zrotation
												End Site
												{
													OFFSET 212.550781 0.000000 0.625752
												}
											}
										}
									}
								}
							}
						}
					}
				}
			}
		}
	}
	JOINT mixamorig:RightUpLeg
	{
		OFFSET -8.207787 -6.751648 -1.599560
		CHANNELS 6 Xposition Yposition Zposition Xrotation Yrotation Zrotation
		JOINT mixamorig:RightLeg
		{
			OFFSET -0.000002 -44.370117 0.345942
			CHANNELS 6 Xposition Yposition Zposition Xrotation Yrotation Zrotation
			JOINT mixamorig:RightFoot
			{
				OFFSET 0.000003 -44.423679 -3.043532
				CHANNELS 6 Xposition Yposition Zposition Xrotation Yrotation Zrotation
				JOINT mixamorig:RightToeBase
				{
					OFFSET -0.000002 -8.728671 10.710558
					CHANNELS 6 Xposition Yposition Zposition Xrotation Yrotation Zrotation
					JOINT mixamorig:RightToe_End
					{
						OFFSET -0.000001 -0.000679 9.278119
						CHANNELS 6 Xposition Yposition Zposition Xrotation Yrotation Zrotation
						End Site
						{
							OFFSET 0.000000 -0.067690 927.812134
						}
					}
				}
			}
		}
	}
	JOINT mixamorig:LeftUpLeg
	{
		OFFSET 8.207793 -6.751686 -1.599556
		CHANNELS 6 Xposition Yposition Zposition Xrotation Yrotation Zrotation
		JOINT mixamorig:LeftLeg
		{
			OFFSET -0.000004 -44.370014 0.346954
			CHANNELS 6 Xposition Yposition Zposition Xrotation Yrotation Zrotation
			JOINT mixamorig:LeftFoot
			{
				OFFSET -0.000001 -44.423672 -3.044401
				CHANNELS 6 Xposition Yposition Zposition Xrotation Yrotation Zrotation
				JOINT mixamorig:LeftToeBase
				{
					OFFSET -0.000002 -8.728669 10.710558
					CHANNELS 6 Xposition Yposition Zposition Xrotation Yrotation Zrotation
					JOINT mixamorig:LeftToe_End
					{
						OFFSET -0.000003 -0.000679 9.278133
						CHANNELS 6 Xposition Yposition Zposition Xrotation Yrotation Zrotation
						End Site
						{
							OFFSET 0.000000 -0.068021 927.813477
						}
					}
				}
			}
		}
	}
}
MOTION
Frames: 3
Frame Time: 0.033333
0.000006 104.270477 1.554256 0.000010 0.000003 -0.000113 -0.000005 10.181587 0.131522 0.000001 -0.000003 0.000084 -0.000000 9.893967 -1.470711 0.000001 0.000000 -0.000000 -0.000000 9.220802 -1.370642 0.000000 -0.000000 -0.000000 0.000001 16.740433 -2.049030 0.000000 -0.000000 -0.000000 0.000000 9.617859 1.685014 0.000000 0.000000 0.000000 0.000002 22.037384 7.501101 0.000000 -0.000000 0.000000 -4.569968 11.014880 -2.160881 0.000008 0.000001 -0.000038 -10.592877 -0.524762 -2.231905 69.255837 28.989068 -20.244102 -27.841541 0.000002 0.000555 -58.716916 117.710100 85.897306 -28.328814 -0.000006 0.000024 -0.000322 -0.000044 0.000007 -2.464429 -1.573766 2.682338 -47.473192 -165.309620 -8.707153 -3.215278 -1.872573 1.924642 152.957538 32.258587 9.536545 -2.654952 -1.527875 1.513076 147.681449 27.300935 -32.005993 -2.018823 -1.151988 1.108068 -0.000001 -0.000004 0.000004 -9.108384 -0.517545 2.260126 101.344803 15.182962 -18.535200 -3.700052 0.000324 0.001524 98.246643 12.770947 -14.708005 -2.850078 0.000377 -0.000266 97.085579 10.459241 -11.829565 -2.772163 -0.000001 -0.000019 0.000000 -0.000000 0.000000 -9.532598 0.000278 0.000241 93.953323 15.518840 -16.764805 -3.700085 0.000325 0.003973 92.739830 12.701203 -13.218234 -2.950073 0.000321 -0.001780 95.348614 11.747494 -12.881644 -2.946615 0.000002 -0.000158 0.000002 -0.000000 -0.000001 -9.103711 -0.042744 -1.864885 92.546666 17.122808 -17.842396 -3.379321 0.000328 -0.000811 91.735526 9.965141 -10.287995 -2.889744 0.000361 0.000649 98.164783 7.161155 -8.311058 -2.638817 0.000013 0.000941 0.000001 -0.000000 0.000000 -8.076759 -0.486389 -3.806034 84.110112 17.579515 -15.745188 -3.600041 0.000274 -0.003543 84.155696 8.067132 -6.966278 -2.100013 0.000323 -0.005510 87.323163 4.660751 -4.241709 -2.115783 -0.000028 -0.003684 -0.000002 0.000001 -0.000003 4.570446 11.014691 -2.160851 -0.000018 0.000010 -0.000021 10.592489 -0.524572 -2.232363 42.963502 -64.145892 27.706671 27.841726 -0.000075 -0.000074 238.326638 -70.920463 256.157065 28.328831 0.000000 0.000034 0.000019 -0.000089 0.000000 2.466118 -1.576201 2.681889 28.965818 119.540045 -82.629457 3.217825 -1.871991 1.916550 270.842627 37.036264 36.650583 2.656100 -1.528742 1.514650 91.558399 160.842130 -149.122837 2.020898 -1.154041 1.115153 0.000006 -0.000003 0.000003 9.109270 -0.517903 2.260105 -82.823495 -16.542564 -14.606790 3.699945 0.000169 -0.000064 -91.941996 -15.075505 -15.599336 2.849968 0.000186 0.000583 -87.805832 -13.335599 -12.837925 2.774870 -0.000029 -0.000024 0.000002 0.000002 -0.000002 9.533131 0.000137 0.000187 -165.158441 -26.085430 -121.318052 3.700095 0.000274 -0.000321 -54.254450 -165.647141 207.609856 2.950012 0.000207 -0.000225 -87.068581 -182.181349 177.706619 2.952858 -0.000032 0.000055 -0.000000 -0.000000 -0.000000 9.104325 -0.042984 -1.864953 6.729797 -155.156421 29.896421 3.149997 0.000291 -0.000101 107.790945 0.023604 -0.030264 2.949932 0.000209 -0.000193 75.917928 16.401885 -12.829108 2.644316 0.000033 0.000052 0.000001 -0.000001 0.000001 8.077571 -0.486841 -3.806139 5.162984 -160.131463 30.707199 3.599940 0.000341 0.014555 112.587978 4.062288 -5.501112 2.099935 0.000202 0.007496 73.060163 17.442561 -12.771131 2.125497 -0.000031 0.007522 0.000001 -0.000001 -0.000003 -8.207786 -6.751667 -1.599560 -0.077001 -0.000003 0.000080 -0.000002 -44.370110 0.345938 0.153719 -0.000000 -0.000000 0.000000 -44.423679 -3.043532 -0.076700 0.000000 -0.000002 -0.000006 -8.728667 10.710559 -0.000009 -0.000000 -0.000000 -0.000001 -0.000679 9.278123 0.000000 -0.000000 -0.000000 8.207792 -6.751710 -1.599556 -0.074518 -0.000003 0.000081 -0.000002 -44.370014 0.346960 0.148822 0.000002 0.000000 -0.000001 -44.423664 -3.044403 -0.074314 0.000000 -0.000002 -0.000004 -8.728671 10.710558 0.000007 -0.000000 -0.000000 0.000000 -0.000680 9.278137 -0.000000 0.000000 -0.000001 
0.000006 104.270477 1.554256 0.000010 0.000003 -0.000113 -0.000005 10.181587 0.131522 0.000001 -0.000003 0.000084 -0.000000 9.893967 -1.470711 0.000001 0.000000 -0.000000 -0.000000 9.220802 -1.370642 0.000000 -0.000000 -0.000000 0.000001 16.740433 -2.049030 0.000000 -0.000000 -0.000000 0.000000 9.617859 1.685014 0.000000 0.000000 0.000000 0.000002 22.037384 7.501101 0.000000 -0.000000 0.000000 -4.569968 11.014880 -2.160881 0.000008 0.000001 -0.000038 -10.592881 -0.524756 -2.231925 68.692510 26.531562 -18.303816 -27.841532 0.000020 0.000521 -59.087024 118.439428 87.153781 -28.328829 0.000007 0.000030 -0.000325 -0.000046 0.000007 -2.464432 -1.573746 2.682334 -48.028449 -166.184827 -10.142506 -3.215258 -1.872574 1.924636 152.811836 32.305138 10.011508 -2.654954 -1.527884 1.513065 147.700737 27.335276 -31.629161 -2.018819 -1.152001 1.108065 -0.000002 -0.000002 0.000005 -9.108382 -0.517555 2.260126 101.497000 15.194294 -18.598397 -3.700047 0.000321 0.001523 98.783516 12.702362 -14.766845 -2.850098 0.000368 -0.000254 97.851783 10.390885 -11.910800 -2.772158 -0.000001 -0.000019 -0.000000 -0.000000 0.000001 -9.532603 0.000272 0.000233 93.975480 15.368537 -16.610306 -3.700063 0.000333 0.003969 93.145544 12.454609 -13.051553 -2.950060 0.000319 -0.001798 95.888090 11.412362 -12.632470 -2.946618 0.000002 -0.000155 0.000000 0.000000 0.000000 -9.103709 -0.042757 -1.864871 92.114971 16.958682 -17.540547 -3.379323 0.000327 -0.000813 91.475583 9.824099 -10.096947 -2.889756 0.000345 0.000662 98.154388 6.900101 -8.008604 -2.638798 -0.000004 0.000940 -0.000001 0.000000 -0.000001 -8.076758 -0.486382 -3.806034 83.422790 17.507590 -15.494279 -3.600049 0.000275 -0.003536 84.657196 7.991669 -6.959241 -2.100024 0.000326 -0.005507 88.468367 4.423599 -4.097166 -2.115752 -0.000044 -0.003685 0.000001 -0.000003 -0.000004 4.570446 11.014691 -2.160851 -0.000018 0.000010 -0.000021 10.592492 -0.524554 -2.232365 43.173107 -65.762277 28.694776 27.841722 -0.000083 -0.000092 238.817947 -70.391445 257.263091 28.328831 -0.000013 0.000027 0.000019 -0.000089 0.000000 2.466117 -1.576169 2.681902 26.784997 119.975387 -80.680175 3.217845 -1.871992 1.916530 268.095198 35.691072 37.843534 2.656103 -1.528736 1.514646 91.484831 163.280644 -149.926477 2.020891 -1.154055 1.115143 0.000004 -0.000000 0.000003 9.109267 -0.517891 2.260128 -82.448361 -17.858527 -15.671003 3.699959 0.000155 -0.000040 -91.871502 -15.785908 -16.313261 2.849970 0.000173 0.000583 -87.930373 -14.443463 -13.935318 2.774881 -0.000051 -0.000028 0.000001 0.000001 -0.000001 9.533138 0.000164 0.000189 -167.334826 -25.638543 -128.016378 3.700082 0.000234 -0.000328 -57.169100 -166.431370 204.628069 2.949995 0.000198 -0.000224 -89.316560 -182.772392 177.196731 2.952869 -0.000031 0.000056 0.000003 0.000003 0.000001 9.104373 -0.043004 -1.864971 2.492627 -156.085546 11.737166 3.149983 0.000266 -0.000132 101.073693 1.680123 -2.038945 2.949922 0.000186 -0.000151 71.248251 16.761930 -12.052113 2.644325 0.000044 0.000060 0.000002 -0.000002 -0.000000 8.077629 -0.486881 -3.806164 0.330989 -160.450310 4.532822 3.599936 0.000307 0.014537 105.706091 4.535214 -5.472094 2.099939 0.000173 0.007485 69.043582 17.407567 -11.842930 2.125494 -0.000014 0.007513 0.000004 -0.000002 0.000001 -8.207786 -6.751667 -1.599560 -0.077001 -0.000003 0.000080 -0.000002 -44.370110 0.345938 0.153719 -0.000000 -0.000000 0.000000 -44.423679 -3.043532 -0.076700 0.000000 -0.000002 -0.000006 -8.728667 10.710559 -0.000009 -0.000000 -0.000000 -0.000001 -0.000679 9.278123 0.000000 -0.000000 -0.000000 8.207792 -6.751710 -1.599556 -0.074518 -0.000003 0.000081 -0.000002 -44.370014 0.346960 0.148822 0.000002 0.000000 -0.000001 -44.423664 -3.044403 -0.074314 0.000000 -0.000002 -0.000004 -8.728671 10.710558 0.000007 -0.000000 -0.000000 0.000000 -0.000680 9.278137 -0.000000 0.000000 -0.000001 
0.000006 104.270477 1.554256 0.000010 0.000003 -0.000113 -0.000005 10.181587 0.131522 0.000001 -0.000003 0.000084 -0.000000 9.893967 -1.470711 0.000001 0.000000 -0.000000 -0.000000 9.220802 -1.370642 0.000000 -0.000000 -0.000000 0.000001 16.740433 -2.049030 0.000000 -0.000000 -0.000000 0.000000 9.617859 1.685014 0.000000 0.000000 0.000000 0.000002 22.037384 7.501101 0.000000 -0.000000 0.000000 -4.569968 11.014880 -2.160881 0.000008 0.000001 -0.000038 -10.592877 -0.524770 -2.231902 68.936853 30.010523 -20.852364 -27.841536 0.000020 0.000523 -58.714362 116.960542 85.053156 -28.328812 0.000021 0.000025 -0.000322 -0.000045 0.000006 -2.464431 -1.573763 2.682326 -48.087786 -165.201225 -10.366720 -3.215269 -1.872554 1.924643 151.708105 32.451482 12.391329 -2.654953 -1.527874 1.513067 147.165646 27.485123 -30.913938 -2.018838 -1.151984 1.108058 -0.000004 -0.000006 0.000004 -9.108392 -0.517555 2.260144 100.990364 14.756233 -17.906994 -3.700070 0.000320 0.001498 98.820659 12.255051 -14.256701 -2.850079 0.000376 -0.000250 98.177433 10.223400 -11.786115 -2.772170 0.000000 -0.000019 -0.000000 -0.000000 -0.000000 -9.532602 0.000278 0.000235 94.356044 15.328898 -16.677049 -3.700069 0.000333 0.003963 93.113640 12.363165 -12.948014 -2.950065 0.000341 -0.001792 95.564134 11.470629 -12.625537 -2.946626 -0.000000 -0.000156 -0.000001 0.000000 0.000000 -9.103710 -0.042766 -1.864877 92.470277 17.043596 -17.736476 -3.379327 0.000327 -0.000817 91.391585 10.001769 -10.264234 -2.889766 0.000358 0.000644 97.896534 7.143216 -8.251404 -2.638820 0.000000 0.000945 -0.000001 0.000001 -0.000002 -8.076767 -0.486397 -3.806050 83.906613 17.780036 -15.870552 -3.600028 0.000279 -0.003544 84.249659 8.328447 -7.213172 -2.100019 0.000316 -0.005501 87.571440 4.643913 -4.244032 -2.115772 -0.000027 -0.003677 -0.000003 0.000002 -0.000005 4.570446 11.014691 -2.160851 -0.000018 0.000010 -0.000021 10.592489 -0.524554 -2.232365 42.842222 -65.042430 28.087698 27.841730 -0.000071 -0.000086 238.257188 -71.389820 255.596990 28.328833 -0.000013 0.000027 0.000019 -0.000089 -0.000000 2.466117 -1.576190 2.681881 26.976565 119.262493 -80.414208 3.217840 -1.871975 1.916542 271.257575 37.067129 36.411387 2.656075 -1.528724 1.514647 94.571660 162.381232 -150.997164 2.020887 -1.154069 1.115154 0.000000 0.000003 0.000004 9.109272 -0.517900 2.260101 -83.082845 -16.890750 -14.982809 3.699946 0.000148 -0.000085 -91.023090 -15.500037 -15.785822 2.849963 0.000166 0.000583 -86.871981 -14.217226 -13.467880 2.774877 -0.000021 -0.000020 0.000001 0.000000 -0.000002 9.533140 0.000126 0.000167 -168.053950 -25.026225 -129.532980 3.700091 0.000241 -0.000331 -55.767849 -166.343329 205.498590 2.950009 0.000232 -0.000232 -86.829579 -182.345178 177.523870 2.952869 -0.000030 0.000074 -0.000000 -0.000001 -0.000001 9.104366 -0.043022 -1.864977 3.120106 -156.705372 15.059370 3.149998 0.000297 -0.000128 105.214058 0.600520 -0.783661 2.949922 0.000214 -0.000185 76.518807 15.892600 -12.562556 2.644324 0.000014 0.000057 -0.000001 0.000002 0.000000 8.077624 -0.486891 -3.806174 1.121051 -160.911962 9.215115 3.599935 0.000343 0.014556 109.107204 3.901636 -4.927120 2.099950 0.000179 0.007484 73.790427 16.730970 -12.396136 2.125509 -0.000031 0.007529 0.000003 0.000002 0.000001 -8.207786 -6.751667 -1.599560 -0.077001 -0.000003 0.000080 -0.000002 -44.370110 0.345938 0.153719 -0.000000 -0.000000 0.000000 -44.423679 -3.043532 -0.076700 0.000000 -0.000002 -0.000006 -8.728667 10.710559 -0.000009 -0.000000 -0.000000 -0.000001 -0.000679 9.278123 0.000000 -0.000000 -0.000000 8.207792 -6.751710 -1.599556 -0.074518 -0.000003 0.000081 -0.000002 -44.370014 0.346960 0.148822 0.000002 0.000000 -0.000001 -44.423664 -3.044403 -0.074314 0.000000 -0.000002 -0.000004 -8.728671 10.710558 0.000007 -0.000000 -0.000000 0.000000 -0.000680 9.278137 -0.000000 0.000000 -0.000001 
